<svg width="904" height="258" viewBox="0 0 904 258" fill="none" xmlns="http://www.w3.org/2000/svg">
<path d="M32.7614 72V48.7273H42.375C44.1174 48.7273 45.6212 49.0682 46.8864 49.75C48.1591 50.4242 49.1402 51.3674 49.8295 52.5795C50.5189 53.7841 50.8636 55.1856 50.8636 56.7841C50.8636 58.3902 50.5114 59.7955 49.8068 61C49.1098 62.197 48.1136 63.125 46.8182 63.7841C45.5227 64.4432 43.9848 64.7727 42.2045 64.7727H36.2727V60.3409H41.1591C42.0076 60.3409 42.7159 60.1932 43.2841 59.8977C43.8598 59.6023 44.2955 59.1894 44.5909 58.6591C44.8864 58.1212 45.0341 57.4962 45.0341 56.7841C45.0341 56.0644 44.8864 55.4432 44.5909 54.9205C44.2955 54.3902 43.8598 53.9811 43.2841 53.6932C42.7083 53.4053 42 53.2614 41.1591 53.2614H38.3864V72H32.7614ZM59.1932 48.7273V72H53.6364V48.7273H59.1932ZM67.6506 72.2955C66.5369 72.2955 65.5483 72.1098 64.6847 71.7386C63.8286 71.3598 63.1506 70.7917 62.6506 70.0341C62.1581 69.2689 61.9119 68.3106 61.9119 67.1591C61.9119 66.1894 62.0824 65.3712 62.4233 64.7045C62.7642 64.0379 63.2339 63.4962 63.8324 63.0795C64.4309 62.6629 65.1203 62.3485 65.9006 62.1364C66.6809 61.9167 67.5142 61.7689 68.4006 61.6932C69.393 61.6023 70.1922 61.5076 70.7983 61.4091C71.4044 61.303 71.8438 61.1553 72.1165 60.9659C72.3968 60.7689 72.5369 60.4924 72.5369 60.1364V60.0795C72.5369 59.4962 72.3362 59.0455 71.9347 58.7273C71.5331 58.4091 70.9915 58.25 70.3097 58.25C69.5748 58.25 68.9839 58.4091 68.5369 58.7273C68.09 59.0455 67.8059 59.4848 67.6847 60.0455L62.5597 59.8636C62.7112 58.803 63.1013 57.8561 63.7301 57.0227C64.3665 56.1818 65.2377 55.5227 66.3438 55.0455C67.4574 54.5606 68.7945 54.3182 70.3551 54.3182C71.4688 54.3182 72.4953 54.4508 73.4347 54.7159C74.3741 54.9735 75.1922 55.3523 75.8892 55.8523C76.5862 56.3447 77.1241 56.9508 77.5028 57.6705C77.8892 58.3902 78.0824 59.2121 78.0824 60.1364V72H72.8551V69.5682H72.7188C72.4081 70.1591 72.0104 70.6591 71.5256 71.0682C71.0483 71.4773 70.4839 71.7841 69.8324 71.9886C69.1884 72.1932 68.4612 72.2955 67.6506 72.2955ZM69.3665 68.6591C69.965 68.6591 70.5028 68.5379 70.9801 68.2955C71.465 68.053 71.8513 67.7197 72.1392 67.2955C72.4271 66.8636 72.571 66.3636 72.571 65.7955V64.1364C72.4119 64.2197 72.2188 64.2955 71.9915 64.3636C71.7718 64.4318 71.5294 64.4962 71.2642 64.5568C70.9991 64.6174 70.7263 64.6705 70.446 64.7159C70.1657 64.7614 69.8968 64.803 69.6392 64.8409C69.1165 64.9242 68.6695 65.053 68.2983 65.2273C67.9347 65.4015 67.6544 65.6288 67.4574 65.9091C67.268 66.1818 67.1733 66.5076 67.1733 66.8864C67.1733 67.4621 67.3778 67.9015 67.7869 68.2045C68.2036 68.5076 68.7301 68.6591 69.3665 68.6591ZM84.2528 78.5455C83.5862 78.5455 82.9574 78.4924 82.3665 78.3864C81.7756 78.2879 81.268 78.1553 80.8438 77.9886L82.071 73.9545C82.6165 74.1364 83.1089 74.2424 83.5483 74.2727C83.9953 74.303 84.3778 74.2311 84.696 74.0568C85.0218 73.8902 85.2718 73.5909 85.446 73.1591L85.6619 72.6364L79.4574 54.5455H85.2756L88.4915 67H88.6733L91.9347 54.5455H97.7869L91.2074 73.6705C90.8892 74.625 90.4384 75.4659 89.8551 76.1932C89.2794 76.928 88.5331 77.5038 87.6165 77.9205C86.7074 78.3371 85.5862 78.5455 84.2528 78.5455ZM107.514 72.3295C105.688 72.3295 104.113 71.9697 102.787 71.25C101.469 70.5227 100.454 69.4886 99.7415 68.1477C99.0369 66.7992 98.6847 65.197 98.6847 63.3409C98.6847 61.5379 99.0407 59.9621 99.7528 58.6136C100.465 57.2576 101.469 56.2045 102.764 55.4545C104.06 54.697 105.586 54.3182 107.344 54.3182C108.586 54.3182 109.723 54.5114 110.753 54.8977C111.783 55.2841 112.673 55.8561 113.423 56.6136C114.173 57.3712 114.757 58.3068 115.173 59.4205C115.59 60.5265 115.798 61.7955 115.798 63.2273V64.6136H100.628V61.3864H110.628C110.62 60.7955 110.48 60.2689 110.207 59.8068C109.935 59.3447 109.56 58.9848 109.082 58.7273C108.613 58.4621 108.071 58.3295 107.457 58.3295C106.836 58.3295 106.279 58.4697 105.787 58.75C105.295 59.0227 104.904 59.3977 104.616 59.875C104.329 60.3447 104.177 60.8788 104.162 61.4773V64.7614C104.162 65.4735 104.302 66.0985 104.582 66.6364C104.863 67.1667 105.26 67.5795 105.776 67.875C106.291 68.1705 106.904 68.3182 107.616 68.3182C108.109 68.3182 108.556 68.25 108.957 68.1136C109.359 67.9773 109.704 67.7765 109.991 67.5114C110.279 67.2462 110.495 66.9205 110.639 66.5341L115.741 66.6818C115.529 67.8258 115.063 68.822 114.344 69.6705C113.632 70.5114 112.696 71.1667 111.537 71.6364C110.378 72.0985 109.037 72.3295 107.514 72.3295ZM118.636 72V54.5455H124.034V57.7273H124.216C124.534 56.5758 125.053 55.7197 125.773 55.1591C126.492 54.5909 127.33 54.3068 128.284 54.3068C128.542 54.3068 128.807 54.3258 129.08 54.3636C129.352 54.3939 129.606 54.4432 129.841 54.5114V59.3409C129.576 59.25 129.227 59.178 128.795 59.125C128.371 59.072 127.992 59.0455 127.659 59.0455C127 59.0455 126.405 59.1932 125.875 59.4886C125.352 59.7765 124.939 60.1818 124.636 60.7045C124.341 61.2197 124.193 61.8258 124.193 62.5227V72H118.636Z" fill="black"/>
<path d="M732.886 57.1591H727.205C727.129 56.5758 726.973 56.0492 726.739 55.5795C726.504 55.1098 726.193 54.7083 725.807 54.375C725.42 54.0417 724.962 53.7879 724.432 53.6136C723.909 53.4318 723.33 53.3409 722.693 53.3409C721.564 53.3409 720.591 53.6174 719.773 54.1705C718.962 54.7235 718.337 55.5227 717.898 56.5682C717.466 57.6136 717.25 58.8788 717.25 60.3636C717.25 61.9091 717.47 63.2045 717.909 64.25C718.356 65.2879 718.981 66.072 719.784 66.6023C720.595 67.125 721.553 67.3864 722.659 67.3864C723.28 67.3864 723.845 67.3068 724.352 67.1477C724.867 66.9886 725.318 66.7576 725.705 66.4545C726.098 66.1439 726.42 65.7689 726.67 65.3295C726.928 64.8826 727.106 64.3788 727.205 63.8182L732.886 63.8523C732.788 64.8826 732.489 65.8977 731.989 66.8977C731.496 67.8977 730.818 68.8106 729.955 69.6364C729.091 70.4545 728.038 71.1061 726.795 71.5909C725.561 72.0758 724.144 72.3182 722.545 72.3182C720.439 72.3182 718.553 71.8561 716.886 70.9318C715.227 70 713.917 68.6439 712.955 66.8636C711.992 65.0833 711.511 62.9167 711.511 60.3636C711.511 57.803 712 55.6326 712.977 53.8523C713.955 52.072 715.277 50.7197 716.943 49.7955C718.61 48.8712 720.477 48.4091 722.545 48.4091C723.955 48.4091 725.258 48.6061 726.455 49C727.652 49.3864 728.705 49.9545 729.614 50.7045C730.523 51.447 731.261 52.3598 731.83 53.4432C732.398 54.5265 732.75 55.7652 732.886 57.1591ZM744.253 72.3295C742.42 72.3295 740.844 71.9545 739.526 71.2045C738.215 70.447 737.204 69.3939 736.491 68.0455C735.787 66.6894 735.435 65.1174 735.435 63.3295C735.435 61.5341 735.787 59.9621 736.491 58.6136C737.204 57.2576 738.215 56.2045 739.526 55.4545C740.844 54.697 742.42 54.3182 744.253 54.3182C746.086 54.3182 747.658 54.697 748.969 55.4545C750.287 56.2045 751.298 57.2576 752.003 58.6136C752.715 59.9621 753.071 61.5341 753.071 63.3295C753.071 65.1174 752.715 66.6894 752.003 68.0455C751.298 69.3939 750.287 70.447 748.969 71.2045C747.658 71.9545 746.086 72.3295 744.253 72.3295ZM744.287 68.1364C744.954 68.1364 745.518 67.9318 745.98 67.5227C746.442 67.1136 746.795 66.5455 747.037 65.8182C747.287 65.0909 747.412 64.25 747.412 63.2955C747.412 62.3258 747.287 61.4773 747.037 60.75C746.795 60.0227 746.442 59.4545 745.98 59.0455C745.518 58.6364 744.954 58.4318 744.287 58.4318C743.598 58.4318 743.014 58.6364 742.537 59.0455C742.067 59.4545 741.707 60.0227 741.457 60.75C741.215 61.4773 741.094 62.3258 741.094 63.2955C741.094 64.25 741.215 65.0909 741.457 65.8182C741.707 66.5455 742.067 67.1136 742.537 67.5227C743.014 67.9318 743.598 68.1364 744.287 68.1364ZM755.918 72V54.5455H761.202V57.75H761.395C761.759 56.6894 762.372 55.8523 763.236 55.2386C764.099 54.625 765.13 54.3182 766.327 54.3182C767.539 54.3182 768.577 54.6288 769.44 55.25C770.304 55.8712 770.853 56.7045 771.088 57.75H771.27C771.596 56.7121 772.232 55.8826 773.179 55.2614C774.126 54.6326 775.243 54.3182 776.531 54.3182C778.183 54.3182 779.524 54.8485 780.554 55.9091C781.584 56.9621 782.099 58.4091 782.099 60.25V72H776.543V61.5227C776.543 60.6515 776.319 59.9886 775.872 59.5341C775.425 59.072 774.846 58.8409 774.134 58.8409C773.368 58.8409 772.766 59.0909 772.327 59.5909C771.895 60.0833 771.679 60.7462 771.679 61.5795V72H766.338V61.4659C766.338 60.6553 766.118 60.0152 765.679 59.5455C765.24 59.0758 764.66 58.8409 763.94 58.8409C763.455 58.8409 763.027 58.9583 762.656 59.1932C762.285 59.4205 761.993 59.7462 761.781 60.1705C761.577 60.5947 761.474 61.0947 761.474 61.6705V72H755.918ZM785.543 78.5455V54.5455H791.043V57.5341H791.213C791.44 57.0038 791.762 56.4924 792.179 56C792.603 55.5076 793.141 55.1061 793.793 54.7955C794.452 54.4773 795.24 54.3182 796.156 54.3182C797.368 54.3182 798.501 54.6364 799.554 55.2727C800.615 55.9091 801.471 56.8902 802.122 58.2159C802.774 59.5417 803.099 61.2311 803.099 63.2841C803.099 65.2614 802.785 66.9167 802.156 68.25C801.535 69.5833 800.694 70.5833 799.634 71.25C798.58 71.9167 797.41 72.25 796.122 72.25C795.243 72.25 794.482 72.1061 793.838 71.8182C793.194 71.5303 792.652 71.1515 792.213 70.6818C791.781 70.2121 791.448 69.7083 791.213 69.1705H791.099V78.5455H785.543ZM790.986 63.2727C790.986 64.2121 791.111 65.0303 791.361 65.7273C791.618 66.4242 791.986 66.9659 792.463 67.3523C792.948 67.7311 793.527 67.9205 794.202 67.9205C794.884 67.9205 795.463 67.7311 795.94 67.3523C796.418 66.9659 796.777 66.4242 797.02 65.7273C797.27 65.0303 797.395 64.2121 797.395 63.2727C797.395 62.3333 797.27 61.5189 797.02 60.8295C796.777 60.1402 796.418 59.6061 795.94 59.2273C795.471 58.8485 794.891 58.6591 794.202 58.6591C793.52 58.6591 792.94 58.8447 792.463 59.2159C791.986 59.5871 791.618 60.1174 791.361 60.8068C791.111 61.4962 790.986 62.3182 790.986 63.2727ZM817.273 64.4659V54.5455H822.818V72H817.523V68.75H817.341C816.955 69.8182 816.295 70.6667 815.364 71.2955C814.439 71.9167 813.322 72.2273 812.011 72.2273C810.822 72.2273 809.777 71.9545 808.875 71.4091C807.973 70.8636 807.273 70.1023 806.773 69.125C806.273 68.1402 806.019 66.9886 806.011 65.6705V54.5455H811.568V64.5795C811.576 65.5265 811.826 66.2727 812.318 66.8182C812.811 67.3636 813.481 67.6364 814.33 67.6364C814.883 67.6364 815.379 67.5152 815.818 67.2727C816.265 67.0227 816.617 66.6629 816.875 66.1932C817.14 65.7159 817.273 65.1402 817.273 64.4659ZM836.207 54.5455V58.6364H825.196V54.5455H836.207ZM827.503 50.3636H833.06V66.5114C833.06 66.8523 833.113 67.1288 833.219 67.3409C833.332 67.5455 833.495 67.6932 833.707 67.7841C833.92 67.8674 834.173 67.9091 834.469 67.9091C834.681 67.9091 834.904 67.8902 835.139 67.8523C835.382 67.8068 835.563 67.7689 835.685 67.7386L836.526 71.75C836.26 71.8258 835.885 71.9205 835.401 72.0341C834.923 72.1477 834.351 72.2197 833.685 72.25C832.382 72.3106 831.264 72.1591 830.332 71.7955C829.408 71.4242 828.7 70.8485 828.207 70.0682C827.723 69.2879 827.488 68.3068 827.503 67.125V50.3636ZM847.014 72.3295C845.188 72.3295 843.613 71.9697 842.287 71.25C840.969 70.5227 839.954 69.4886 839.241 68.1477C838.537 66.7992 838.185 65.197 838.185 63.3409C838.185 61.5379 838.541 59.9621 839.253 58.6136C839.965 57.2576 840.969 56.2045 842.264 55.4545C843.56 54.697 845.086 54.3182 846.844 54.3182C848.086 54.3182 849.223 54.5114 850.253 54.8977C851.283 55.2841 852.173 55.8561 852.923 56.6136C853.673 57.3712 854.257 58.3068 854.673 59.4205C855.09 60.5265 855.298 61.7955 855.298 63.2273V64.6136H840.128V61.3864H850.128C850.12 60.7955 849.98 60.2689 849.707 59.8068C849.435 59.3447 849.06 58.9848 848.582 58.7273C848.113 58.4621 847.571 58.3295 846.957 58.3295C846.336 58.3295 845.779 58.4697 845.287 58.75C844.795 59.0227 844.404 59.3977 844.116 59.875C843.829 60.3447 843.677 60.8788 843.662 61.4773V64.7614C843.662 65.4735 843.802 66.0985 844.082 66.6364C844.363 67.1667 844.76 67.5795 845.276 67.875C845.791 68.1705 846.404 68.3182 847.116 68.3182C847.609 68.3182 848.056 68.25 848.457 68.1136C848.859 67.9773 849.204 67.7765 849.491 67.5114C849.779 67.2462 849.995 66.9205 850.139 66.5341L855.241 66.6818C855.029 67.8258 854.563 68.822 853.844 69.6705C853.132 70.5114 852.196 71.1667 851.037 71.6364C849.878 72.0985 848.537 72.3295 847.014 72.3295ZM858.136 72V54.5455H863.534V57.7273H863.716C864.034 56.5758 864.553 55.7197 865.273 55.1591C865.992 54.5909 866.83 54.3068 867.784 54.3068C868.042 54.3068 868.307 54.3258 868.58 54.3636C868.852 54.3939 869.106 54.4432 869.341 54.5114V59.3409C869.076 59.25 868.727 59.178 868.295 59.125C867.871 59.072 867.492 59.0455 867.159 59.0455C866.5 59.0455 865.905 59.1932 865.375 59.4886C864.852 59.7765 864.439 60.1818 864.136 60.7045C863.841 61.2197 863.693 61.8258 863.693 62.5227V72H858.136Z" fill="black"/>
<path d="M227.5 111H57C27.1766 111 3 86.8234 3 57V57C3 27.1766 27.1766 3 57 3H847C876.823 3 901 27.1766 901 57V57C901 86.8234 876.823 111 847 111H676.5" stroke="black" stroke-width="6"/>
<path d="M242 41V197C242 229.033 267.967 255 300 255H604C636.033 255 662 229.033 662 197V41" stroke="black" stroke-width="6"/>
<line x1="455" y1="84" x2="455" y2="212" stroke="black" stroke-width="6"/>
</svg>
